# xmcd CD database file
#
# Track frame offsets:
#	150
#	13218
#	27344
#	46825
#	69132
#	109623
#	129578
#	149650
#	182009
#	204959
#	229156
#	252576
#
# Disc length: 3574 seconds
#
# Revision: 0
# Processed by: cddbd v1.5.2PL0 Copyright (c) Steve Scherf et al.
# Submitted via: CDex 1.51
#
DISCID=a60df40c
DTITLE=Tom Waits - Invitation to the Blues Disc 1
DYEAR=1999
DGENRE=Blues
TTITLE0=Lucky Day Overture
TTITLE1=Down, Down, Down
TTITLE2=Jesus Gonne Be Here
TTITLE3=In The Collosseum
TTITLE4=Get Behind the Mule
TTITLE5=Chocolate Jesus
TTITLE6=House Is On Fire
TTITLE7=Hold On
TTITLE8=Eye Ball Kid
TTITLE9=Band Intros
TTITLE10=Tango Till They're Sore
TTITLE11=Picture In A Frame
EXTD=YEAR: 1999
EXTT0=
EXTT1=
EXTT2=
EXTT3=
EXTT4=
EXTT5=
EXTT6=
EXTT7=
EXTT8=
EXTT9=
EXTT10=
EXTT11=
PLAYORDER=
